<svg width="17" height="17" viewBox="0 0 17 17" fill="none" xmlns="http://www.w3.org/2000/svg">
<g opacity="0.2" clip-path="url(#clip0_0_42)">
<path d="M2.88505 12.7506H13.9752C14.3165 12.7506 14.6528 12.6684 14.9557 12.5109C15.2585 12.3535 15.5189 12.1254 15.715 11.846C15.911 11.5666 16.0368 11.2441 16.0818 10.9057C16.1268 10.5674 16.0897 10.2232 15.9735 9.90225L13.9533 4.31678C13.6082 3.07552 12.8661 1.98143 11.8404 1.20186C10.8147 0.422292 9.56191 0.000150229 8.27359 7.20628e-10C6.93246 -2.09622e-05 5.63142 0.457312 4.58527 1.29649C3.53913 2.13567 2.81045 3.30651 2.51953 4.61571L0.85487 9.99929C0.75686 10.3171 0.734827 10.6535 0.790542 10.9815C0.846258 11.3094 0.978166 11.6196 1.17565 11.8873C1.37314 12.1549 1.6307 12.3724 1.92759 12.5224C2.22449 12.6723 2.55243 12.7505 2.88505 12.7506Z" fill="black"/>
<path d="M5.03015 14.1687C5.19273 14.9694 5.62711 15.6892 6.25969 16.2063C6.89227 16.7233 7.68414 17.0057 8.50114 17.0057C9.31814 17.0057 10.11 16.7233 10.7426 16.2063C11.3752 15.6892 11.8096 14.9694 11.9721 14.1687H5.03015Z" fill="black"/>
</g>
<defs>
<clipPath id="clip0_0_42">
<rect width="16.0671" height="16.0671" fill="white" transform="scale(1.05811)"/>
</clipPath>
</defs>
</svg>
