<svg width="27" height="27" viewBox="0 0 27 27" fill="none" xmlns="http://www.w3.org/2000/svg">
<g clip-path="url(#clip0_0_307)">
<path d="M12.3749 0H3.37498C2.47988 0 1.62144 0.355578 0.98851 0.98851C0.355578 1.62144 0 2.47988 0 3.37498L0 26.9999H15.7499V3.37498C15.7499 2.47988 15.3944 1.62144 14.7614 0.98851C14.1285 0.355578 13.27 0 12.3749 0ZM6.74997 21.3749H3.37498V19.1249H6.74997V21.3749ZM6.74997 16.8749H3.37498V14.6249H6.74997V16.8749ZM6.74997 12.3749H3.37498V10.125H6.74997V12.3749ZM6.74997 7.87496H3.37498V5.62497H6.74997V7.87496ZM12.3749 21.3749H8.99996V19.1249H12.3749V21.3749ZM12.3749 16.8749H8.99996V14.6249H12.3749V16.8749ZM12.3749 12.3749H8.99996V10.125H12.3749V12.3749ZM12.3749 7.87496H8.99996V5.62497H12.3749V7.87496ZM23.6249 5.62497H17.9999V26.9999H26.9999V8.99996C26.9999 8.10486 26.6443 7.24642 26.0114 6.61348C25.3784 5.98055 24.52 5.62497 23.6249 5.62497ZM23.6249 21.3749H21.3749V19.1249H23.6249V21.3749ZM23.6249 16.8749H21.3749V14.6249H23.6249V16.8749ZM23.6249 12.3749H21.3749V10.125H23.6249V12.3749Z" fill="white"/>
</g>
<defs>
<clipPath id="clip0_0_307">
<rect width="26.6112" height="26.6112" fill="white" transform="scale(1.01461)"/>
</clipPath>
</defs>
</svg>
