<svg width="29" height="29" viewBox="0 0 29 29" fill="none" xmlns="http://www.w3.org/2000/svg">
<g clip-path="url(#clip0_0_313)">
<path d="M14.4998 0C6.50435 0 0 6.50435 0 14.4998C0 22.4952 6.50435 28.9995 14.4998 28.9995C22.4952 28.9995 28.9995 22.4952 28.9995 14.4998C28.9995 6.50435 22.4952 0 14.4998 0ZM19.333 15.7081H14.4998C13.8328 15.7081 13.2915 15.168 13.2915 14.4998V7.24988C13.2915 6.58169 13.8328 6.04157 14.4998 6.04157C15.1668 6.04157 15.7081 6.58169 15.7081 7.24988V13.2915H19.333C20.0012 13.2915 20.5413 13.8316 20.5413 14.4998C20.5413 15.168 20.0012 15.7081 19.333 15.7081Z" fill="white"/>
</g>
<defs>
<clipPath id="clip0_0_313">
<rect width="28.9995" height="28.9995" fill="white"/>
</clipPath>
</defs>
</svg>
