<svg width="15" height="15" viewBox="0 0 15 15" fill="none" xmlns="http://www.w3.org/2000/svg">
<path d="M6.2464 5.00056H8.74643V4.06305C8.74643 2.85491 9.72582 1.87552 10.934 1.87552C12.1421 1.87552 13.1215 2.85491 13.1215 4.06305C13.1215 5.27118 12.1421 6.25057 10.934 6.25057H9.99644V8.7506H10.934C12.1421 8.7506 13.1215 9.72998 13.1215 10.9381C13.1215 12.1463 12.1421 13.1256 10.934 13.1256C9.72582 13.1256 8.74643 12.1463 8.74643 10.9381V10.0006H6.2464V10.9381C6.2464 12.1463 5.26702 13.1256 4.05888 13.1256C2.85074 13.1256 1.87135 12.1463 1.87135 10.9381C1.87135 9.72998 2.85074 8.7506 4.05888 8.7506H4.99639V6.25057H4.05888C2.85074 6.25057 1.87135 5.27118 1.87135 4.06305C1.87135 2.85491 2.85074 1.87552 4.05888 1.87552C5.26702 1.87552 6.2464 2.85491 6.2464 4.06305V5.00056ZM4.99639 5.00056V4.06305C4.99639 3.54527 4.57665 3.12554 4.05888 3.12554C3.5411 3.12554 3.12137 3.54527 3.12137 4.06305C3.12137 4.58082 3.5411 5.00056 4.05888 5.00056H4.99639ZM4.99639 10.0006H4.05888C3.5411 10.0006 3.12137 10.4204 3.12137 10.9381C3.12137 11.4559 3.5411 11.8756 4.05888 11.8756C4.57665 11.8756 4.99639 11.4559 4.99639 10.9381V10.0006ZM9.99644 5.00056H10.934C11.4517 5.00056 11.8715 4.58082 11.8715 4.06305C11.8715 3.54527 11.4517 3.12554 10.934 3.12554C10.4162 3.12554 9.99644 3.54527 9.99644 4.06305V5.00056ZM9.99644 10.0006V10.9381C9.99644 11.4559 10.4162 11.8756 10.934 11.8756C11.4517 11.8756 11.8715 11.4559 11.8715 10.9381C11.8715 10.4204 11.4517 10.0006 10.934 10.0006H9.99644ZM6.2464 6.25057V8.7506H8.74643V6.25057H6.2464Z" fill="black" fill-opacity="0.5"/>
</svg>
