<svg width="26" height="26" viewBox="0 0 26 26" fill="none" xmlns="http://www.w3.org/2000/svg">
<g clip-path="url(#clip0_0_331)">
<path d="M16.253 8.66574H23.3382C22.96 7.6635 22.3724 6.75348 21.6146 5.99637L17.8402 2.2198C17.0822 1.46289 16.1719 0.875697 15.1697 0.497268V7.5824C15.1697 8.18066 15.6547 8.66574 16.253 8.66574Z" fill="white"/>
<path d="M23.8087 10.8335H16.2513C14.4563 10.8335 13.0012 9.3784 13.0012 7.58346V0.0260005C12.8268 0.0140667 12.6524 0 12.4758 0H7.58441C4.59431 0.00360554 2.17124 2.42668 2.16768 5.41678V20.5837C2.17124 23.5738 4.59431 25.9969 7.58441 26.0005H18.4179C21.408 25.9969 23.8311 23.5738 23.8347 20.5837V11.359C23.8347 11.1824 23.8206 11.008 23.8087 10.8335Z" fill="white"/>
</g>
<defs>
<clipPath id="clip0_0_331">
<rect width="25.02" height="25.02" fill="white" transform="scale(1.03919)"/>
</clipPath>
</defs>
</svg>
