<svg width="52" height="52" viewBox="0 0 52 52" fill="none" xmlns="http://www.w3.org/2000/svg">
<rect width="52.0006" height="52.0006" rx="12.0504" fill="white" fill-opacity="0.1"/>
<rect x="0.502098" y="0.502098" width="50.9964" height="50.9964" rx="11.5483" stroke="white" stroke-opacity="0.2" stroke-width="1.0042"/>
<path d="M26.2558 14.2253C19.6138 14.2253 14.2253 19.607 14.2253 26.2495C14.2253 32.8984 19.6138 38.2863 26.2558 38.2863C32.9015 38.2863 38.2854 32.8983 38.2854 26.2495C38.2854 19.607 32.9015 14.2253 26.2558 14.2253ZM27.1131 32.9436C26.8337 33.1923 26.5099 33.3172 26.1431 33.3172C25.7635 33.3172 25.4325 33.1945 25.1499 32.9486C24.8668 32.7031 24.7251 32.3594 24.7251 31.9178C24.7251 31.526 24.8623 31.1963 25.1358 30.9291C25.4094 30.6619 25.745 30.5283 26.1431 30.5283C26.5348 30.5283 26.8645 30.6619 27.1322 30.9291C27.3994 31.1963 27.5335 31.526 27.5335 31.9178C27.5329 32.353 27.393 32.695 27.1131 32.9436ZM30.5972 24.3061C30.3825 24.7042 30.1276 25.0475 29.8318 25.3369C29.537 25.6263 29.0067 26.1127 28.2413 26.7966C28.0302 26.9895 27.8604 27.1589 27.7331 27.3047C27.6059 27.451 27.5108 27.5845 27.4487 27.7059C27.3862 27.8273 27.3382 27.9487 27.3042 28.07C27.2703 28.1909 27.2191 28.4043 27.1498 28.709C27.0321 29.3558 26.6621 29.6791 26.0402 29.6791C25.7168 29.6791 25.4451 29.5736 25.2237 29.3621C25.0031 29.1506 24.893 28.8367 24.893 28.4201C24.893 27.8979 24.9741 27.4455 25.1358 27.0628C25.2966 26.6801 25.5117 26.3445 25.7789 26.0551C26.0466 25.7658 26.407 25.4224 26.8613 25.0244C27.2594 24.6761 27.547 24.4134 27.7241 24.2363C27.9016 24.0588 28.0506 23.8614 28.1715 23.6439C28.2934 23.4261 28.3531 23.1901 28.3531 22.9352C28.3531 22.4375 28.1688 22.0181 27.7984 21.6762C27.4284 21.3343 26.951 21.163 26.3663 21.163C25.682 21.163 25.1784 21.3356 24.855 21.6807C24.5317 22.0258 24.2586 22.5339 24.0344 23.2056C23.8225 23.9085 23.4212 24.2599 22.8311 24.2599C22.4828 24.2599 22.1889 24.1371 21.9493 23.8917C21.7102 23.6462 21.5906 23.3804 21.5906 23.0941C21.5906 22.5036 21.7804 21.9048 22.1595 21.2984C22.539 20.692 23.0924 20.1898 23.8202 19.7921C24.5475 19.394 25.3967 19.1947 26.3663 19.1947C27.268 19.1947 28.0638 19.3614 28.754 19.6943C29.4442 20.0267 29.9776 20.4791 30.354 21.0516C30.7299 21.6235 30.9183 22.2454 30.9183 22.917C30.9192 23.4447 30.8119 23.908 30.5972 24.3061Z" fill="white"/>
</svg>
