<svg width="52" height="52" viewBox="0 0 52 52" fill="none" xmlns="http://www.w3.org/2000/svg">
<rect width="52.0006" height="52.0006" rx="12.0504" fill="white" fill-opacity="0.1"/>
<rect x="0.502098" y="0.502098" width="50.9964" height="50.9964" rx="11.5483" stroke="white" stroke-opacity="0.2" stroke-width="1.0042"/>
<path d="M17.4442 16.4686C18.7338 15.3146 20.2605 14.4203 21.9423 13.8676C22.8733 15.0307 24.3051 15.7756 25.9108 15.7756C27.5165 15.7756 28.9482 15.0307 29.8793 13.8676C31.5611 14.4203 33.0878 15.3146 34.3773 16.4686C33.837 17.8557 33.9083 19.4666 34.7105 20.8561C35.5132 22.2464 36.8738 23.1138 38.3461 23.3388C38.5205 24.1774 38.6121 25.0463 38.6121 25.9367C38.6121 26.8269 38.5205 27.6959 38.3461 28.5345C36.8738 28.7595 35.5132 29.6269 34.7105 31.0172C33.9083 32.4066 33.837 34.0176 34.3773 35.4046C33.0878 36.5586 31.5611 37.4531 29.8793 38.0057C28.9482 36.8426 27.5165 36.0977 25.9108 36.0977C24.3051 36.0977 22.8733 36.8426 21.9423 38.0057C20.2605 37.4531 18.7338 36.5586 17.4442 35.4046C17.9846 34.0176 17.9133 32.4066 17.1111 31.0172C16.3084 29.6269 14.9478 28.7595 13.4754 28.5345C13.3011 27.6959 13.2095 26.8269 13.2095 25.9367C13.2095 25.0463 13.3011 24.1774 13.4754 23.3388C14.9478 23.1138 16.3084 22.2464 17.1111 20.8561C17.9133 19.4666 17.9846 17.8557 17.4442 16.4686ZM27.816 29.2366C29.6385 28.1843 30.2629 25.854 29.2107 24.0315C28.1584 22.209 25.8281 21.5845 24.0056 22.6367C22.1831 23.6889 21.5587 26.0193 22.6109 27.8419C23.6632 29.6644 25.9935 30.2888 27.816 29.2366Z" fill="white"/>
</svg>
