<svg width="99" height="39" viewBox="0 0 99 39" fill="none" xmlns="http://www.w3.org/2000/svg">
<rect y="0.00196483" width="70.7151" height="38.3882" rx="19.0797" fill="#F2F2F2"/>
<path d="M49.5103 11.7222C48.3387 12.8169 47.6064 14.3758 47.6064 16.1057C47.6064 19.4184 50.2919 22.1039 53.6045 22.1039C55.3345 22.1039 56.8934 21.3715 57.9881 20.1999C57.7323 24.3862 54.2562 27.7022 50.0056 27.7022C45.5887 27.7022 42.0081 24.1215 42.0081 19.7047C42.0081 15.4541 45.3241 11.978 49.5103 11.7222Z" fill="#C2C2C2"/>
<g filter="url(#filter0_d_0_29)">
<path d="M5.05355 19.1949C5.05355 10.826 11.8379 4.04166 20.2068 4.04166C28.5757 4.04166 35.36 10.826 35.36 19.1949C35.36 27.5638 28.5757 34.3481 20.2068 34.3481C11.8379 34.3481 5.05355 27.5638 5.05355 19.1949Z" fill="#6A4BFC"/>
</g>
<g clip-path="url(#clip0_0_29)">
<path d="M19.6995 23.9949C17.3284 23.9949 15.4061 22.0727 15.4061 19.7015C15.4061 17.3303 17.3284 15.4081 19.6995 15.4081C22.0707 15.4081 23.993 17.3303 23.993 19.7015C23.993 22.0727 22.0707 23.9949 19.6995 23.9949ZM19.6995 22.5638C21.2803 22.5638 22.5618 21.2823 22.5618 19.7015C22.5618 18.1207 21.2803 16.8392 19.6995 16.8392C18.1188 16.8392 16.8373 18.1207 16.8373 19.7015C16.8373 21.2823 18.1188 22.5638 19.6995 22.5638ZM18.984 11.8303H20.4151V13.977H18.984V11.8303ZM18.984 25.4261H20.4151V27.5728H18.984V25.4261ZM13.6277 14.6417L14.6397 13.6297L16.1577 15.1477L15.1457 16.1596L13.6277 14.6417ZM23.2414 24.2554L24.2534 23.2434L25.7714 24.7614L24.7594 25.7733L23.2414 24.2554ZM24.7594 13.6297L25.7714 14.6417L24.2534 16.1596L23.2414 15.1477L24.7594 13.6297ZM15.1457 23.2434L16.1577 24.2554L14.6397 25.7733L13.6277 24.7614L15.1457 23.2434ZM27.5708 18.9859V20.4171H25.4241V18.9859H27.5708ZM13.975 18.9859V20.4171H11.8283V18.9859H13.975Z" fill="white"/>
</g>
<defs>
<filter id="filter0_d_0_29" x="3.03312" y="4.04166" width="34.3464" height="34.3464" filterUnits="userSpaceOnUse" color-interpolation-filters="sRGB">
<feFlood flood-opacity="0" result="BackgroundImageFix"/>
<feColorMatrix in="SourceAlpha" type="matrix" values="0 0 0 0 0 0 0 0 0 0 0 0 0 0 0 0 0 0 127 0" result="hardAlpha"/>
<feOffset dy="2.00839"/>
<feGaussianBlur stdDeviation="1.0042"/>
<feComposite in2="hardAlpha" operator="out"/>
<feColorMatrix type="matrix" values="0 0 0 0 0 0 0 0 0 0 0 0 0 0 0 0 0 0 0.05 0"/>
<feBlend mode="normal" in2="BackgroundImageFix" result="effect1_dropShadow_0_29"/>
<feBlend mode="normal" in="SourceGraphic" in2="effect1_dropShadow_0_29" result="shape"/>
</filter>
<clipPath id="clip0_0_29">
<rect width="17.0713" height="17.0713" fill="white" transform="translate(11.1131 11.1131) scale(1.00599)"/>
</clipPath>
</defs>
</svg>
