<svg width="24" height="24" viewBox="0 0 24 24" fill="none" xmlns="http://www.w3.org/2000/svg">
<path d="M21 12C21 12.1989 20.921 12.3897 20.7803 12.5303C20.6397 12.671 20.4489 12.75 20.25 12.75H3.75C3.55109 12.75 3.36032 12.671 3.21967 12.5303C3.07902 12.3897 3 12.1989 3 12C3 11.8011 3.07902 11.6103 3.21967 11.4697C3.36032 11.329 3.55109 11.25 3.75 11.25H20.25C20.4489 11.25 20.6397 11.329 20.7803 11.4697C20.921 11.6103 21 11.8011 21 12ZM6.75 6.75H23.25C23.4489 6.75 23.6397 6.67098 23.7803 6.53033C23.921 6.38968 24 6.19891 24 6C24 5.80109 23.921 5.61032 23.7803 5.46967C23.6397 5.32902 23.4489 5.25 23.25 5.25H6.75C6.55109 5.25 6.36032 5.32902 6.21967 5.46967C6.07902 5.61032 6 5.80109 6 6C6 6.19891 6.07902 6.38968 6.21967 6.53033C6.36032 6.67098 6.55109 6.75 6.75 6.75ZM17.25 17.25H0.75C0.551088 17.25 0.360322 17.329 0.21967 17.4697C0.0790178 17.6103 0 17.8011 0 18C0 18.1989 0.0790178 18.3897 0.21967 18.5303C0.360322 18.671 0.551088 18.75 0.75 18.75H17.25C17.4489 18.75 17.6397 18.671 17.7803 18.5303C17.921 18.3897 18 18.1989 18 18C18 17.8011 17.921 17.6103 17.7803 17.4697C17.6397 17.329 17.4489 17.25 17.25 17.25Z" fill="white"/>
</svg>
