<svg width="242" height="162" viewBox="0 0 242 162" fill="none" xmlns="http://www.w3.org/2000/svg">
<path fill-rule="evenodd" clip-rule="evenodd" d="M161.333 60.5C172.471 60.5 181.5 69.5289 181.5 80.6667C181.5 91.8044 172.471 100.833 161.333 100.833L80.6667 100.833C69.5289 100.833 60.5 91.8044 60.5 80.6666C60.5 69.5289 69.5289 60.5 80.6667 60.5L161.333 60.5ZM161.333 96.8L80.6667 96.8C71.7565 96.8 64.5334 89.5768 64.5334 80.6666C64.5334 71.7565 71.7565 64.5333 80.6667 64.5333L161.333 64.5333C170.244 64.5333 177.467 71.7565 177.467 80.6667C177.467 89.5768 170.244 96.8 161.333 96.8Z" fill="url(#paint0_linear_221_6914)"/>
<path fill-rule="evenodd" clip-rule="evenodd" d="M193.6 80.6667C193.6 62.8463 179.154 48.4 161.333 48.4L80.6667 48.4C62.8463 48.4 48.4 62.8463 48.4 80.6666C48.4 98.487 62.8463 112.933 80.6667 112.933L161.333 112.933C179.154 112.933 193.6 98.487 193.6 80.6667ZM80.6667 108.9L161.333 108.9C176.926 108.9 189.567 96.2595 189.567 80.6667C189.567 65.0738 176.926 52.4333 161.333 52.4333L80.6667 52.4333C65.0738 52.4333 52.4333 65.0738 52.4333 80.6666C52.4333 96.2595 65.0738 108.9 80.6667 108.9Z" fill="url(#paint1_linear_221_6914)"/>
<path fill-rule="evenodd" clip-rule="evenodd" d="M161.333 36.3C185.836 36.3 205.7 56.1636 205.7 80.6667C205.7 105.17 185.836 125.033 161.333 125.033L80.6667 125.033C56.1636 125.033 36.3 105.17 36.3 80.6666C36.3 56.1636 56.1636 36.3 80.6667 36.3L161.333 36.3ZM161.333 121L80.6667 121C58.3912 121 40.3333 102.942 40.3333 80.6666C40.3333 58.3912 58.3912 40.3333 80.6667 40.3333L161.333 40.3333C183.609 40.3333 201.667 58.3912 201.667 80.6667C201.667 102.942 183.609 121 161.333 121Z" fill="url(#paint2_linear_221_6914)"/>
<path fill-rule="evenodd" clip-rule="evenodd" d="M217.8 80.6667C217.8 49.481 192.519 24.2 161.333 24.2L80.6667 24.2C49.481 24.2 24.2 49.481 24.2 80.6666C24.2 111.852 49.481 137.133 80.6667 137.133L161.333 137.133C192.519 137.133 217.8 111.852 217.8 80.6667ZM80.6667 133.1L161.333 133.1C190.291 133.1 213.767 109.625 213.767 80.6667C213.767 51.7085 190.291 28.2333 161.333 28.2333L80.6667 28.2333C51.7085 28.2333 28.2334 51.7085 28.2333 80.6666C28.2333 109.625 51.7086 133.1 80.6667 133.1Z" fill="url(#paint3_linear_221_6914)"/>
<path fill-rule="evenodd" clip-rule="evenodd" d="M161.333 12.1C199.202 12.1 229.9 42.7983 229.9 80.6667C229.9 118.535 199.202 149.233 161.333 149.233L80.6667 149.233C42.7984 149.233 12.1 118.535 12.1 80.6666C12.1 42.7983 42.7984 12.1 80.6667 12.1L161.333 12.1ZM161.333 145.2L80.6667 145.2C45.0259 145.2 16.1333 116.307 16.1333 80.6666C16.1333 45.0259 45.0259 16.1333 80.6667 16.1333L161.333 16.1333C196.974 16.1333 225.867 45.0259 225.867 80.6667C225.867 116.307 196.974 145.2 161.333 145.2Z" fill="url(#paint4_linear_221_6914)"/>
<path fill-rule="evenodd" clip-rule="evenodd" d="M161.333 -3.52605e-06C205.884 -1.57867e-06 242 36.1157 242 80.6667C242 125.218 205.884 161.333 161.333 161.333L80.6667 161.333C36.1157 161.333 9.78535e-06 125.218 1.17327e-05 80.6666C1.36801e-05 36.1157 36.1157 -8.99949e-06 80.6667 -7.0521e-06L161.333 -3.52605e-06ZM161.333 157.3L80.6667 157.3C38.3433 157.3 4.03335 122.99 4.03335 80.6666C4.03335 38.3432 38.3433 4.03332 80.6667 4.03333L161.333 4.03333C203.657 4.03333 237.967 38.3432 237.967 80.6667C237.967 122.99 203.657 157.3 161.333 157.3Z" fill="url(#paint5_linear_221_6914)"/>
<defs>
<linearGradient id="paint0_linear_221_6914" x1="121" y1="5.45797e-06" x2="121" y2="161.333" gradientUnits="userSpaceOnUse">
<stop stop-color="#8A71FE"/>
<stop offset="1" stop-color="#6A4AFF"/>
</linearGradient>
<linearGradient id="paint1_linear_221_6914" x1="121" y1="5.45797e-06" x2="121" y2="161.333" gradientUnits="userSpaceOnUse">
<stop stop-color="#8A71FE"/>
<stop offset="1" stop-color="#6A4AFF"/>
</linearGradient>
<linearGradient id="paint2_linear_221_6914" x1="121" y1="5.45797e-06" x2="121" y2="161.333" gradientUnits="userSpaceOnUse">
<stop stop-color="#8A71FE"/>
<stop offset="1" stop-color="#6A4AFF"/>
</linearGradient>
<linearGradient id="paint3_linear_221_6914" x1="121" y1="5.45797e-06" x2="121" y2="161.333" gradientUnits="userSpaceOnUse">
<stop stop-color="#8A71FE"/>
<stop offset="1" stop-color="#6A4AFF"/>
</linearGradient>
<linearGradient id="paint4_linear_221_6914" x1="121" y1="5.45797e-06" x2="121" y2="161.333" gradientUnits="userSpaceOnUse">
<stop stop-color="#8A71FE"/>
<stop offset="1" stop-color="#6A4AFF"/>
</linearGradient>
<linearGradient id="paint5_linear_221_6914" x1="121" y1="5.45797e-06" x2="121" y2="161.333" gradientUnits="userSpaceOnUse">
<stop stop-color="#8A71FE"/>
<stop offset="1" stop-color="#6A4AFF"/>
</linearGradient>
</defs>
</svg>
