<svg width="30" height="30" viewBox="0 0 30 30" fill="none" xmlns="http://www.w3.org/2000/svg">
<g clip-path="url(#clip0_0_319)">
<path d="M15.0001 0C6.72878 0 0 6.72878 0 15.0001C0.753754 34.8727 29.2501 34.8677 30.0001 15.0001C30.0001 6.72878 23.2714 0 15.0001 0ZM16.2501 21.2501V22.5001C16.2438 24.1351 13.7563 24.1339 13.7501 22.5001V21.2501H13.4151C12.0813 21.2501 10.8363 20.5326 10.1675 19.3763C9.8213 18.7776 10.0263 18.0138 10.6226 17.6688C11.2213 17.3201 11.9863 17.5276 12.3301 18.1238C12.5538 18.5113 12.9688 18.7501 13.4138 18.7501H16.2488C17.4951 18.8313 18.0526 16.8126 16.6938 16.5501L12.8926 15.9163C8.51504 15.1051 9.45755 8.72504 13.7488 8.75004V7.50004C13.7563 5.86503 16.2426 5.86628 16.2488 7.50004V8.75004H16.5838C17.9176 8.75004 19.1626 9.4688 19.8313 10.6251C20.1776 11.2226 19.9726 11.9863 19.3763 12.3326C18.7763 12.6788 18.0126 12.4738 17.6688 11.8763C17.4451 11.4901 17.0301 11.2513 16.5851 11.2513H13.7501C12.5038 11.1701 11.9476 13.1888 13.3051 13.4513L17.1063 14.0851C21.4839 14.8963 20.5413 21.2751 16.2501 21.2501Z" fill="white"/>
</g>
<defs>
<clipPath id="clip0_0_319">
<rect width="29.1212" height="29.1212" fill="white" transform="scale(1.03018)"/>
</clipPath>
</defs>
</svg>
