<svg width="27" height="27" viewBox="0 0 27 27" fill="none" xmlns="http://www.w3.org/2000/svg">
<g clip-path="url(#clip0_0_325)">
<path d="M8.4375 14.625C7.43623 14.625 6.45745 14.3281 5.62493 13.7718C4.7924 13.2155 4.14353 12.4249 3.76036 11.4998C3.37719 10.5748 3.27694 9.55689 3.47227 8.57486C3.66761 7.59283 4.14977 6.69078 4.85777 5.98277C5.56577 5.27477 6.46783 4.79261 7.44986 4.59728C8.43188 4.40194 9.44978 4.50219 10.3748 4.88536C11.2999 5.26853 12.0905 5.9174 12.6468 6.74993C13.2031 7.58245 13.5 8.56124 13.5 9.5625C13.4985 10.9047 12.9647 12.1915 12.0156 13.1406C11.0665 14.0897 9.7797 14.6235 8.4375 14.625ZM16.875 22.5C16.8732 21.0087 16.28 19.579 15.2255 18.5245C14.171 17.47 12.7413 16.8768 11.25 16.875H5.625C4.13371 16.8768 2.704 17.47 1.6495 18.5245C0.594992 19.579 0.00178634 21.0087 0 22.5L0 27H16.875V22.5ZM19.6875 10.125C18.6862 10.125 17.7074 9.82809 16.8749 9.27182C16.0424 8.71554 15.3935 7.92489 15.0104 6.99984C14.6272 6.07479 14.5269 5.05689 14.7223 4.07486C14.9176 3.09283 15.3998 2.19078 16.1078 1.48277C16.8158 0.774771 17.7178 0.292614 18.6999 0.0972768C19.6819 -0.0980609 20.6998 0.00219351 21.6248 0.385362C22.5499 0.768531 23.3405 1.4174 23.8968 2.24993C24.4531 3.08245 24.75 4.06123 24.75 5.0625C24.7485 6.4047 24.2147 7.69151 23.2656 8.64059C22.3165 9.58967 21.0297 10.1235 19.6875 10.125ZM21.375 12.375H15.75C15.5526 12.3841 15.3558 12.404 15.1605 12.4346C14.7515 13.3811 14.1473 14.2306 13.3875 14.9276C15.0371 15.3944 16.4896 16.3861 17.5249 17.7525C18.5603 19.119 19.122 20.7856 19.125 22.5H27V18C26.9982 16.5087 26.405 15.079 25.3505 14.0245C24.296 12.97 22.8663 12.3768 21.375 12.375Z" fill="white"/>
</g>
<defs>
<clipPath id="clip0_0_325">
<rect width="27" height="27" fill="white"/>
</clipPath>
</defs>
</svg>
